<?xml version="1.0" standalone="no"?>
<!DOCTYPE svg PUBLIC "-//W3C//DTD SVG 20010904//EN"
 "http://www.w3.org/TR/2001/REC-SVG-20010904/DTD/svg10.dtd">
<svg version="1.0" xmlns="http://www.w3.org/2000/svg"
 width="601.000000pt" height="301.000000pt" viewBox="0 0 601.000000 301.000000"
 preserveAspectRatio="xMidYMid meet">

<g transform="translate(0.000000,301.000000) scale(0.100000,-0.100000)"
fill="#000000" stroke="none">
<path d="M344 2781 c-69 -17 -123 -64 -155 -135 -18 -39 -19 -81 -19 -817 0
-747 -1 -777 -19 -815 -34 -69 -44 -130 -39 -222 7 -102 25 -154 85 -239 71
-102 186 -171 312 -188 30 -4 72 -16 95 -26 37 -17 71 -19 384 -19 197 0 374
5 415 11 204 31 385 110 521 230 l46 41 0 -35 c0 -50 25 -123 55 -164 15 -19
51 -46 79 -59 l51 -24 491 0 c531 0 598 5 754 57 92 30 208 90 276 142 l51 39
79 -38 c95 -45 239 -92 351 -115 76 -15 86 -15 138 -1 101 30 144 86 204 268
l33 98 224 0 223 0 16 -30 c8 -16 15 -42 15 -57 0 -74 49 -178 119 -255 110
-121 288 -174 444 -133 122 32 212 95 278 197 53 83 73 165 67 281 -5 95 -16
129 -77 237 -11 19 -67 159 -125 310 -324 847 -521 1349 -542 1377 -14 18 -46
45 -72 60 l-47 28 -275 3 c-299 4 -333 0 -400 -49 -51 -37 -57 -50 -188 -389
-60 -157 -156 -405 -213 -553 l-104 -267 -32 37 c-18 21 -32 42 -33 46 0 5 16
35 35 66 20 32 48 91 62 132 23 65 26 90 27 209 0 112 -3 149 -22 215 -78 269
-273 439 -596 515 -129 31 -289 40 -727 40 -462 0 -476 -2 -546 -71 -45 -44
-73 -111 -73 -178 l0 -35 -32 30 c-126 117 -291 193 -499 230 -78 14 -178 18
-579 20 -267 2 -499 -1 -516 -5z m1100 -85 c297 -59 485 -192 572 -404 l24
-57 0 175 c0 162 2 179 23 220 16 33 34 51 67 68 l45 23 495 -4 c525 -5 577
-9 723 -58 131 -44 208 -90 293 -174 88 -86 118 -136 156 -255 19 -63 23 -96
23 -205 0 -84 -5 -144 -14 -170 -22 -67 -70 -156 -108 -202 l-36 -44 56 -57
c31 -32 72 -85 90 -120 l33 -62 147 377 c80 208 191 495 246 637 55 142 109
268 118 279 10 11 36 28 58 38 36 17 69 19 302 19 277 0 299 -3 346 -48 29
-28 29 -28 282 -682 84 -217 200 -516 258 -665 57 -148 107 -283 111 -299 4
-16 16 -41 27 -54 31 -40 60 -112 70 -175 27 -162 -65 -333 -219 -409 -62 -31
-74 -33 -167 -33 -93 0 -105 2 -167 33 -122 60 -204 173 -222 307 -4 28 -17
71 -29 98 l-22 47 -271 0 -272 0 -42 -127 c-54 -165 -78 -205 -133 -232 -56
-27 -74 -27 -209 8 -146 39 -331 115 -379 158 -15 12 -19 10 -37 -21 -53 -90
-254 -187 -459 -221 -83 -13 -174 -15 -590 -13 -478 3 -492 4 -519 24 -65 48
-69 61 -72 236 l-3 161 -43 -64 c-119 -176 -301 -289 -545 -339 -88 -18 -137
-20 -451 -20 -327 0 -355 1 -384 19 -17 10 -56 21 -86 24 -135 13 -253 94
-312 215 -31 62 -33 73 -33 172 0 94 3 111 28 164 l27 58 0 774 c0 523 3 782
11 801 14 37 47 72 84 89 46 21 997 13 1109 -10z"/>
<path d="M390 1827 c0 -404 3 -736 6 -740 4 -3 25 3 48 15 27 14 64 22 111 24
68 3 71 4 89 36 110 192 266 373 430 496 l68 51 -138 3 -139 3 -3 248 -2 249
212 -4 c230 -4 257 -10 310 -63 43 -43 60 -101 56 -194 -2 -44 -1 -81 2 -81 3
0 53 16 112 34 90 29 226 57 328 68 22 3 25 8 28 51 4 66 -22 185 -54 248 -74
147 -254 246 -505 279 -41 5 -273 10 -516 10 l-443 0 0 -733z"/>
<path d="M2200 2266 l0 -295 48 -6 c112 -15 288 -64 395 -110 16 -7 17 5 17
175 l0 182 218 -4 219 -3 49 -30 c57 -36 90 -88 99 -158 11 -80 -2 -151 -40
-206 -31 -47 -32 -51 -16 -65 58 -53 87 -195 57 -285 -9 -27 -16 -57 -16 -67
0 -20 46 -103 114 -204 77 -115 294 -330 333 -330 15 0 60 109 74 180 16 82 7
210 -21 282 -41 109 -139 191 -288 244 l-64 22 64 32 c188 95 268 217 268 407
0 101 -23 197 -63 265 -55 94 -179 181 -319 223 -127 38 -229 45 -685 45
l-443 0 0 -294z"/>
<path d="M4510 2541 c-5 -11 -36 -89 -69 -173 -74 -192 -448 -1159 -546 -1413
-54 -138 -71 -191 -62 -197 75 -48 371 -146 403 -134 7 3 40 88 74 190 l62
186 385 -2 386 -3 19 -55 c10 -30 21 -61 23 -69 4 -11 11 -6 24 15 30 49 107
110 162 127 58 19 144 22 185 7 15 -6 29 -8 32 -6 2 3 -87 240 -198 528 -111
288 -245 634 -298 771 l-95 247 -238 0 c-225 0 -239 -1 -249 -19z m382 -803
c72 -210 133 -393 135 -405 l5 -23 -276 0 c-152 0 -276 2 -276 3 0 2 45 138
101 303 56 164 115 342 131 394 16 52 32 101 34 109 2 8 7 11 10 8 3 -3 64
-178 136 -389z"/>
<path d="M2882 1776 c-45 -15 -112 -60 -112 -77 0 -5 10 -9 23 -9 78 0 177
-70 177 -125 0 -69 68 -141 139 -147 30 -3 37 2 55 32 27 45 29 159 4 206 -22
40 -72 90 -108 109 -42 22 -128 27 -178 11z"/>
<path d="M2200 1158 l0 -620 483 5 c402 4 494 7 554 21 92 21 197 64 264 107
l52 33 -39 30 c-22 16 -90 80 -151 141 -103 103 -114 111 -128 95 -26 -28
-102 -61 -167 -71 -35 -5 -139 -8 -233 -7 l-170 3 -3 244 c-1 164 1 248 8 257
8 9 7 26 -5 60 -10 29 -15 74 -14 110 1 33 -1 66 -5 72 -16 27 -272 112 -397
131 l-49 8 0 -619z"/>
<path d="M1695 1746 c-216 -57 -383 -142 -558 -285 l-68 -56 118 -5 c144 -7
195 -22 249 -75 108 -104 71 -324 -66 -395 -58 -30 -143 -40 -327 -40 l-173 0
0 -60 c0 -85 -32 -164 -89 -220 -25 -25 -55 -50 -66 -57 -26 -16 467 -18 616
-2 261 26 477 156 566 341 69 143 78 321 22 447 -44 101 -151 187 -281 227
-32 10 -58 20 -57 23 0 3 32 21 70 39 39 19 95 57 127 87 52 49 55 54 32 54
-14 0 -65 -11 -115 -23z"/>
<path d="M824 1085 c-29 -54 -29 -54 -11 -85 10 -17 25 -43 33 -58 13 -25 14
-18 14 86 0 61 -2 112 -4 112 -2 0 -16 -25 -32 -55z"/>
</g>
</svg>
